HIERARCHY
ROOT Root
{
  OFFSET 0.0 0.0 0.0
  CHANNELS 6 Xposition Yposition Zposition Zrotation Yrotation Xrotation
  JOINT Hips
  {
    OFFSET 0.0 100.0 0.0
    CHANNELS 6 Xposition Yposition Zposition Zrotation Yrotation Xrotation
    JOINT Spine1
    {
      OFFSET -0.013727 5.003763 -0.053727
      CHANNELS 3 Zrotation Yrotation Xrotation
      JOINT Spine2
      {
        OFFSET -0.0 7.125301 -0.029825
        CHANNELS 3 Zrotation Yrotation Xrotation
        JOINT Chest
        {
          OFFSET -1e-06 7.550063 -0.815971
          CHANNELS 3 Zrotation Yrotation Xrotation
          JOINT Neck1
          {
            OFFSET -0.181677 26.311295 -0.553348
            CHANNELS 3 Zrotation Yrotation Xrotation
            JOINT Neck2
            {
              OFFSET -3e-06 7.709397 2.302585
              CHANNELS 3 Zrotation Yrotation Xrotation
              JOINT Head
              {
                OFFSET -5e-06 6.128916 1.953709
                CHANNELS 3 Zrotation Yrotation Xrotation
                JOINT HeadEnd
                {
                  OFFSET 0.003598 16.065403 -1.835379
                  CHANNELS 3 Zrotation Yrotation Xrotation
                }
                JOINT Jaw
                {
                  OFFSET 0.002637 0.475592 3.094941
                  CHANNELS 3 Zrotation Yrotation Xrotation
                }
                JOINT LeftEye
                {
                  OFFSET 3.206381 5.380205 7.586883
                  CHANNELS 3 Zrotation Yrotation Xrotation
                }
                JOINT RightEye
                {
                  OFFSET -3.22244 5.361869 7.558234
                  CHANNELS 3 Zrotation Yrotation Xrotation
                }
              }
            }
          }
          JOINT LeftShoulder
          {
            OFFSET 1.621652 23.237164 5.113413
            CHANNELS 3 Zrotation Yrotation Xrotation
            JOINT LeftArm
            {
              OFFSET 14.919846 2e-06 -5.502326
              CHANNELS 3 Zrotation Yrotation Xrotation
              JOINT LeftForeArm
              {
                OFFSET 28.739307 0.0 -0.002588
                CHANNELS 3 Zrotation Yrotation Xrotation
                JOINT LeftHand
                {
                  OFFSET 27.093981 -1e-06 0.002609
                  CHANNELS 3 Zrotation Yrotation Xrotation
                  JOINT LeftHandThumb1
                  {
                    OFFSET 2.276482 -1.392045 3.191413
                    CHANNELS 3 Zrotation Yrotation Xrotation
                    JOINT LeftHandThumb2
                    {
                      OFFSET 4.012836 -1.828127 1.641654
                      CHANNELS 3 Zrotation Yrotation Xrotation
                      JOINT LeftHandThumb3
                      {
                        OFFSET 2.798515 0.0 -3e-06
                        CHANNELS 3 Zrotation Yrotation Xrotation
                        JOINT LeftHandThumbEnd
                        {
                          OFFSET 3.180793 -4e-06 4e-06
                          CHANNELS 3 Zrotation Yrotation Xrotation
                        }
                      }
                    }
                  }
                  JOINT LeftHandIndex1
                  {
                    OFFSET 3.247555 -0.531998 2.296169
                    CHANNELS 3 Zrotation Yrotation Xrotation
                    JOINT LeftHandIndex2
                    {
                      OFFSET 6.364578 0.01206 0.1786
                      CHANNELS 3 Zrotation Yrotation Xrotation
                      JOINT LeftHandIndex3
                      {
                        OFFSET 3.662364 0.0 0.0
                        CHANNELS 3 Zrotation Yrotation Xrotation
                        JOINT LeftHandIndex4
                        {
                          OFFSET 2.329242 4e-06 4e-06
                          CHANNELS 3 Zrotation Yrotation Xrotation
                          JOINT LeftHandIndexEnd
                          {
                            OFFSET 2.759615 -0.180537 -0.113024
                            CHANNELS 3 Zrotation Yrotation Xrotation
                          }
                        }
                      }
                    }
                  }
                  JOINT LeftHandMiddle1
                  {
                    OFFSET 3.163495 0.240981 1.000332
                    CHANNELS 3 Zrotation Yrotation Xrotation
                    JOINT LeftHandMiddle2
                    {
                      OFFSET 6.19078 -0.259278 -1.002548
                      CHANNELS 3 Zrotation Yrotation Xrotation
                      JOINT LeftHandMiddle3
                      {
                        OFFSET 4.35652 -4e-06 -1e-06
                        CHANNELS 3 Zrotation Yrotation Xrotation
                        JOINT LeftHandMiddle4
                        {
                          OFFSET 2.996877 -8e-06 0.0
                          CHANNELS 3 Zrotation Yrotation Xrotation
                          JOINT LeftHandMiddleEnd
                          {
                            OFFSET 2.304287 -0.294569 -0.031741
                            CHANNELS 3 Zrotation Yrotation Xrotation
                          }
                        }
                      }
                    }
                  }
                  JOINT LeftHandRing1
                  {
                    OFFSET 2.882643 -0.053652 -0.322543
                    CHANNELS 3 Zrotation Yrotation Xrotation
                    JOINT LeftHandRing2
                    {
                      OFFSET 5.854541 -0.486202 -1.373841
                      CHANNELS 3 Zrotation Yrotation Xrotation
                      JOINT LeftHandRing3
                      {
                        OFFSET 4.350578 0.0 3e-06
                        CHANNELS 3 Zrotation Yrotation Xrotation
                        JOINT LeftHandRing4
                        {
                          OFFSET 2.651321 7e-06 2e-06
                          CHANNELS 3 Zrotation Yrotation Xrotation
                          JOINT LeftHandRingEnd
                          {
                            OFFSET 1.936105 0.077687 -7.1e-05
                            CHANNELS 3 Zrotation Yrotation Xrotation
                          }
                        }
                      }
                    }
                  }
                  JOINT LeftHandPinky1
                  {
                    OFFSET 2.8655 -0.310005 -1.600378
                    CHANNELS 3 Zrotation Yrotation Xrotation
                    JOINT LeftHandPinky2
                    {
                      OFFSET 5.087849 -1.331141 -1.77123
                      CHANNELS 3 Zrotation Yrotation Xrotation
                      JOINT LeftHandPinky3
                      {
                        OFFSET 3.070974 4e-06 0.0
                        CHANNELS 3 Zrotation Yrotation Xrotation
                        JOINT LeftHandPinky4
                        {
                          OFFSET 1.549672 0.0 1e-06
                          CHANNELS 3 Zrotation Yrotation Xrotation
                          JOINT LeftHandPinkyEnd
                          {
                            OFFSET 1.944893 -0.157802 0.057219
                            CHANNELS 3 Zrotation Yrotation Xrotation
                          }
                        }
                      }
                    }
                  }
                }
              }
            }
          }
          JOINT RightShoulder
          {
            OFFSET -1.380118 23.180309 5.214158
            CHANNELS 3 Zrotation Yrotation Xrotation
            JOINT RightArm
            {
              OFFSET -15.037196 1.2e-05 -5.545604
              CHANNELS 3 Zrotation Yrotation Xrotation
              JOINT RightForeArm
              {
                OFFSET -28.736639 2e-06 -0.002597
                CHANNELS 3 Zrotation Yrotation Xrotation
                JOINT RightHand
                {
                  OFFSET -27.133619 -0.0 0.002613
                  CHANNELS 3 Zrotation Yrotation Xrotation
                  JOINT RightHandThumb1
                  {
                    OFFSET -2.274032 -1.383988 3.163127
                    CHANNELS 3 Zrotation Yrotation Xrotation
                    JOINT RightHandThumb2
                    {
                      OFFSET -4.011429 -1.827466 1.640914
                      CHANNELS 3 Zrotation Yrotation Xrotation
                      JOINT RightHandThumb3
                      {
                        OFFSET -2.794935 -4e-06 -3e-06
                        CHANNELS 3 Zrotation Yrotation Xrotation
                        JOINT RightHandThumbEnd
                        {
                          OFFSET -3.183852 4e-06 1e-06
                          CHANNELS 3 Zrotation Yrotation Xrotation
                        }
                      }
                    }
                  }
                  JOINT RightHandIndex1
                  {
                    OFFSET -3.253266 -0.520057 2.282866
                    CHANNELS 3 Zrotation Yrotation Xrotation
                    JOINT RightHandIndex2
                    {
                      OFFSET -6.341917 0.012471 0.178266
                      CHANNELS 3 Zrotation Yrotation Xrotation
                      JOINT RightHandIndex3
                      {
                        OFFSET -3.654871 -8e-06 -0.0
                        CHANNELS 3 Zrotation Yrotation Xrotation
                        JOINT RightHandIndex4
                        {
                          OFFSET -2.327586 0.0 1e-06
                          CHANNELS 3 Zrotation Yrotation Xrotation
                          JOINT RightHandIndexEnd
                          {
                            OFFSET -2.76179 -0.180656 -0.113078
                            CHANNELS 3 Zrotation Yrotation Xrotation
                          }
                        }
                      }
                    }
                  }
                  JOINT RightHandMiddle1
                  {
                    OFFSET -3.168106 0.246593 1.00103
                    CHANNELS 3 Zrotation Yrotation Xrotation
                    JOINT RightHandMiddle2
                    {
                      OFFSET -6.180828 -0.258836 -1.000895
                      CHANNELS 3 Zrotation Yrotation Xrotation
                      JOINT RightHandMiddle3
                      {
                        OFFSET -4.348901 0.0 -0.0
                        CHANNELS 3 Zrotation Yrotation Xrotation
                        JOINT RightHandMiddle4
                        {
                          OFFSET -3.00024 -4e-06 -2e-06
                          CHANNELS 3 Zrotation Yrotation Xrotation
                          JOINT RightHandMiddleEnd
                          {
                            OFFSET -2.30252 -0.29437 -0.031706
                            CHANNELS 3 Zrotation Yrotation Xrotation
                          }
                        }
                      }
                    }
                  }
                  JOINT RightHandRing1
                  {
                    OFFSET -2.88569 -0.067952 -0.308858
                    CHANNELS 3 Zrotation Yrotation Xrotation
                    JOINT RightHandRing2
                    {
                      OFFSET -5.854198 -0.48613 -1.373731
                      CHANNELS 3 Zrotation Yrotation Xrotation
                      JOINT RightHandRing3
                      {
                        OFFSET -4.33881 -4e-06 -0.0
                        CHANNELS 3 Zrotation Yrotation Xrotation
                        JOINT RightHandRing4
                        {
                          OFFSET -2.654903 -4e-06 4e-06
                          CHANNELS 3 Zrotation Yrotation Xrotation
                          JOINT RightHandRingEnd
                          {
                            OFFSET -1.933568 0.077527 -5.2e-05
                            CHANNELS 3 Zrotation Yrotation Xrotation
                          }
                        }
                      }
                    }
                  }
                  JOINT RightHandPinky1
                  {
                    OFFSET -2.866425 -0.342796 -1.584145
                    CHANNELS 3 Zrotation Yrotation Xrotation
                    JOINT RightHandPinky2
                    {
                      OFFSET -5.091371 -1.332055 -1.772385
                      CHANNELS 3 Zrotation Yrotation Xrotation
                      JOINT RightHandPinky3
                      {
                        OFFSET -3.062664 -4e-06 1e-06
                        CHANNELS 3 Zrotation Yrotation Xrotation
                        JOINT RightHandPinky4
                        {
                          OFFSET -1.546529 4e-06 -2e-06
                          CHANNELS 3 Zrotation Yrotation Xrotation
                          JOINT RightHandPinkyEnd
                          {
                            OFFSET -1.945119 -0.157718 0.057211
                            CHANNELS 3 Zrotation Yrotation Xrotation
                          }
                        }
                      }
                    }
                  }
                }
              }
            }
          }
        }
      }
    }
    JOINT LeftLeg
    {
      OFFSET 10.043214 -8.434526 2.595655
      CHANNELS 3 Zrotation Yrotation Xrotation
      JOINT LeftShin
      {
        OFFSET -1e-06 -43.221752 -0.802913
        CHANNELS 3 Zrotation Yrotation Xrotation
        JOINT LeftFoot
        {
          OFFSET 1e-06 -42.155094 -3.481523
          CHANNELS 3 Zrotation Yrotation Xrotation
          JOINT LeftToeBase
          {
            OFFSET 0.0 -5.059472 13.231529
            CHANNELS 3 Zrotation Yrotation Xrotation
            JOINT LeftToeEnd
            {
              OFFSET -0.009607 -1.647619 6.513017
              CHANNELS 3 Zrotation Yrotation Xrotation
            }
          }
        }
      }
    }
    JOINT RightLeg
    {
      OFFSET -10.047278 -8.29526 2.620317
      CHANNELS 3 Zrotation Yrotation Xrotation
      JOINT RightShin
      {
        OFFSET 1e-06 -43.362206 -0.805556
        CHANNELS 3 Zrotation Yrotation Xrotation
        JOINT RightFoot
        {
          OFFSET 2e-06 -42.117393 -3.478398
          CHANNELS 3 Zrotation Yrotation Xrotation
          JOINT RightToeBase
          {
            OFFSET -0.0 -5.079609 13.284196
            CHANNELS 3 Zrotation Yrotation Xrotation
            JOINT RightToeEnd
            {
              OFFSET 0.009532 -1.634378 6.460591
              CHANNELS 3 Zrotation Yrotation Xrotation
            }
          }
        }
      }
    }
  }
}
MOTION
Frames: 4
Frame Time: 0.03333333333333333
0.176523 0.0 5.935641 0.0 0.257801 0.0 0.0 99.737617 0.0 -0.184812 -0.007405 -2.361907 0.963454 -0.062743 0.825866 -0.403094 -0.096669 -4.282487 -1.515151 -2.189934 10.720753 -1.242455 3.367715 4.473063 -0.141506 0.563263 -3.557085 2.197348 -0.480032 -8.237668 8.3e-05 0.000418 -0.002201 -0.010082 0.026357 -0.002041 0.734629 -3.707529 -10.558387 -0.757756 3.774316 -10.570801 -15.606071 -7.262477 12.708693 -58.456829 -3.978473 23.027718 -0.035083 -35.083511 -0.326407 3.680541 2.095041 7.346471 -5.87854 9.862988 0.768722 -10.957029 -0.367481 7.169137 0.001954 8.777725 0.007426 -15.545002 18.243364 6.514578 -1.83431 2.500918 -2.503755 -10.149058 4.672977 4.646526 -20.94928 -0.010244 -0.01466 -21.191708 2.445279 -3.564545 0.003166 -0.001314 -0.006937 -1.350132 2.224928 -0.723421 -21.304951 0.591056 2.999666 -13.805461 -0.003229 0.00306 -23.824362 -0.241084 -0.827073 -60.563164 2.656171 -0.95541 -0.27724 1.665252 0.839772 -14.209471 0.110156 1.298774 -34.183369 -0.283604 1.00028 -19.998713 0.971635 1.232295 0.011945 0.003068 0.00074 -3.404388 0.768688 0.518633 -15.926967 -3.151533 2.990868 -6.33156 -0.005487 0.00799 -18.073755 3.637596 -4.893784 0.00967 0.010713 -0.004446 24.33106 9.941979 16.698456 51.023689 9.348617 24.181404 0.308054 30.707687 0.175124 0.883369 -13.116525 -6.686474 2.236963 -5.292131 -3.135248 14.308111 -0.799069 6.95436 -0.002553 -12.666125 0.012856 16.068773 -17.91057 2.689301 1.661858 -1.955273 -2.876807 4.716473 -4.157508 4.995167 11.001431 0.00189 0.003308 12.069586 -3.71877 -2.849204 -0.001889 -0.003894 0.012505 1.277146 -1.904224 -1.485114 14.781457 0.553205 3.865808 14.209748 -1.328709 -6.662532 19.570066 0.157898 -0.621745 50.378426 -0.475954 -6.243245 0.3384 -1.483109 -0.033693 20.192888 3.654932 2.323337 18.743174 0.005046 0.011864 10.740728 -0.47443 1.38074 -0.004248 0.003344 0.011585 3.234803 0.349987 -0.568282 21.473513 11.779728 2.241472 8.163003 0.003536 0.025052 18.339073 -3.77693 -4.92283 0.003901 -0.013524 0.007877 5.221912 17.186884 -3.585942 -0.042682 -0.480111 13.218355 -5.250778 -4.358938 -5.870757 1.622315 -1.836496 -1.651074 -0.000196 -0.001016 0.002762 -7.11701 -9.889451 -2.925113 0.038692 0.173771 8.662432 6.920037 -3.468965 -2.23914 -1.41571 1.002752 -1.4408 0.000229 -0.00213 -0.002443 
0.119645 0.0 5.395164 0.0 0.304001 0.0 0.0 99.841583 0.0 -0.158395 -0.005488 -2.054689 0.988538 -0.043627 1.172444 -0.393692 -0.075817 -4.260915 -1.548128 -2.13354 10.897077 -1.277541 3.415215 4.759363 -0.147719 0.400771 -3.546078 2.184215 -0.427197 -8.634916 0.000113 -2.1e-05 -0.000575 -0.005053 0.04716 0.011988 0.727439 -3.686425 -10.561975 -0.740941 3.792602 -10.569465 -15.215357 -7.695134 12.847081 -58.734955 -4.380888 23.201368 -0.011616 -36.334667 -0.329057 3.668998 2.168175 8.314028 -5.88333 9.808645 0.818673 -10.921202 -0.35118 7.183595 -0.002195 8.778724 0.008102 -15.553813 18.21525 6.556587 -1.852932 2.503399 -2.518514 -10.185512 4.701981 4.620564 -21.012568 0.006086 -0.004872 -21.316067 2.472959 -3.637063 0.010603 0.001935 0.005971 -1.389619 2.275909 -0.760429 -21.362867 0.576888 3.013517 -13.840339 0.002122 -0.004205 -23.956751 -0.248083 -0.860608 -60.805096 2.596259 -0.877296 -0.320291 1.714183 0.811733 -14.215838 0.086975 1.30519 -34.276157 -0.258357 0.973067 -20.073149 0.973584 1.201497 -0.00024 -0.014956 0.00404 -3.498381 0.849461 0.462905 -15.919981 -3.197736 3.027949 -6.360345 0.006401 0.014933 -18.194492 3.641434 -4.957684 0.002146 0.001001 -0.000124 23.649363 9.978194 17.100155 51.4217 9.707341 24.238121 0.266144 31.531214 0.16098 0.662523 -12.968938 -6.901111 2.226546 -5.141275 -3.018595 14.255192 -0.883395 7.032648 0.016062 -12.736463 0.00979 16.213787 -18.02574 2.691674 1.672113 -1.961099 -2.901038 4.748349 -4.198537 4.986301 11.053413 -0.011372 -0.000935 12.18303 -3.787277 -2.901284 -0.008982 0.006005 -0.002943 1.310611 -1.970923 -1.524057 14.828119 0.582237 3.884784 14.276853 -1.352963 -6.708406 19.68405 0.123685 -0.66397 50.564804 -0.377968 -6.364375 0.381447 -1.571496 -0.047918 20.244402 3.728337 2.308136 18.84297 -0.013223 -0.005999 10.777097 -0.47619 1.38501 0.007349 0.008715 0.000349 3.349049 0.212209 -0.640152 21.509964 11.930116 2.331374 8.183352 0.002012 -0.007851 18.460443 -3.80716 -5.008348 0.004437 0.007482 0.003572 5.014572 16.944868 -4.025539 -0.058522 -0.466174 12.646908 -5.088755 -4.088573 -5.290196 1.618529 -1.844144 -1.648299 0.000693 0.006341 -0.000922 -6.879484 -9.8084 -2.960463 0.010672 0.110838 7.588632 6.675758 -3.52796 -1.774378 -1.412082 0.981956 -1.610559 -0.001012 -0.004954 0.000887 
0.088424 0.0 4.75802 0.0 0.318755 0.0 0.0 99.93277 0.0 -0.159617 -0.004502 -1.663534 1.015657 -0.030705 1.628433 -0.399675 -0.094033 -4.170333 -1.576126 -2.079542 10.988593 -1.340428 3.479256 4.90422 -0.154473 0.283929 -3.537674 2.198472 -0.356911 -8.79693 2e-06 -0.000585 0.00169 -0.004089 0.053551 0.022608 0.713545 -3.677963 -10.551137 -0.725354 3.792025 -10.560656 -15.149053 -7.381814 12.856137 -58.564247 -4.988534 23.227531 -0.089475 -37.51841 -0.290611 3.719235 2.192068 9.30162 -5.86815 9.833728 0.733348 -10.938299 -0.36301 7.145274 -0.000511 8.77154 -0.005407 -15.506435 18.181131 6.53899 -1.838382 2.490393 -2.496214 -10.145841 4.662826 4.616773 -20.944544 -0.01161 -0.002133 -21.18512 2.434121 -3.565614 0.010662 -0.008455 -0.005921 -1.348586 2.222763 -0.728774 -21.320353 0.592647 3.008955 -13.797822 -0.006543 0.002292 -23.812311 -0.269285 -0.811689 -60.52795 2.590417 -0.805667 -0.272574 1.659958 0.853292 -14.217574 0.102905 1.293274 -34.183426 -0.303643 0.977165 -20.003492 0.971524 1.224506 0.003839 -0.015174 -3.9e-05 -3.403188 0.755298 0.514743 -15.94662 -3.144037 2.997568 -6.330495 -0.005284 -0.003817 -18.071838 3.631293 -4.882751 0.00945 -0.004417 0.008659 23.342112 9.978169 16.758139 51.414707 10.154619 24.186487 0.262065 32.257252 0.1294 0.299871 -12.520814 -7.144582 2.233816 -5.313976 -3.286561 14.311378 -0.79513 6.897895 0.003233 -12.668563 0.005665 16.044144 -17.893442 2.72588 1.662477 -1.954727 -2.871698 4.718829 -4.163907 4.987911 10.991024 -0.001732 -0.006105 12.061033 -3.729187 -2.858075 0.006896 -0.006667 0.028687 1.286812 -1.916457 -1.488652 14.777258 0.547385 3.874791 14.226268 -1.346979 -6.667874 19.580276 0.129398 -0.63191 50.292404 -0.43697 -6.28949 0.346289 -1.492987 -0.029143 20.196051 3.652539 2.329265 18.752401 -0.000691 -0.015628 10.72257 -0.472595 1.386257 0.001632 -0.00573 0.011322 3.256391 0.319867 -0.578732 21.468464 11.794802 2.277842 8.14778 -0.003703 0.000501 18.380028 -3.78761 -4.92994 0.009071 -0.002392 -0.005334 4.740251 16.754744 -4.75045 -0.083962 -0.482072 12.225183 -4.994982 -3.823336 -4.565855 1.612676 -1.837815 -1.617463 -0.000441 -0.005764 -0.00046 -6.606926 -9.655385 -3.228806 -0.010692 0.049028 6.620744 6.333091 -3.601257 -0.984035 -1.402079 0.972893 -1.70543 -0.000595 0.000511 0.001352 
0.079423 0.0 4.058406 0.0 0.268651 0.0 0.0 100.007797 0.0 -0.109366 -0.001986 -1.064634 1.02754 -0.008181 2.23818 -0.415373 -0.124739 -4.044284 -1.624218 -2.04807 11.12574 -1.429881 3.598655 5.141907 -0.163206 0.21664 -3.567091 2.234309 -0.328739 -9.348425 4.3e-05 -0.000145 1e-06 -0.004869 0.057083 0.029429 0.704583 -3.674595 -10.561437 -0.717829 3.798193 -10.576554 -14.744699 -7.571328 12.929346 -58.625626 -5.678292 23.74159 -9.3e-05 -38.923454 -0.291594 3.890266 2.166068 10.429132 -5.880624 9.811693 0.873921 -10.932467 -0.347129 7.203672 -0.006682 8.790354 0.00092 -15.539111 18.217186 6.571348 -1.828556 2.492543 -2.512804 -10.19419 4.704801 4.617152 -21.015722 0.019684 -0.004537 -21.264542 2.494156 -3.635284 -0.008717 -0.003472 0.00968 -1.372164 2.24201 -0.737087 -21.343718 0.596496 2.978992 -13.834612 0.011747 -0.016028 -23.937918 -0.220049 -0.85776 -60.8564 2.484257 -0.968467 -0.307579 1.696097 0.826173 -14.210423 0.09222 1.309729 -34.251106 -0.264631 0.95549 -20.086859 0.986722 1.196684 0.002334 -0.008192 -0.003437 -3.48198 0.831533 0.473535 -15.90661 -3.193913 3.011127 -6.352971 0.004988 0.01389 -18.157112 3.671527 -4.948835 -0.015788 0.004058 -0.000808 22.572384 10.144004 16.897333 51.811291 10.870499 24.630651 0.311602 33.395519 0.152737 -0.202111 -11.977417 -6.907803 2.251695 -5.167106 -2.978254 14.2773 -0.84423 6.979601 0.001853 -12.711452 0.007276 16.120047 -17.94441 2.726958 1.670246 -1.953171 -2.8464 4.736235 -4.177659 4.964583 11.03757 -0.001426 -0.009177 12.137543 -3.752481 -2.864578 -0.004505 0.000901 -0.007542 1.29231 -1.939058 -1.484636 14.820002 0.576778 3.86039 14.253231 -1.346982 -6.664617 19.638988 0.157595 -0.641888 50.365967 -0.484853 -6.2813 0.358307 -1.531858 -0.024704 20.247833 3.69784 2.319396 18.832447 -0.005372 0.008831 10.765831 -0.482858 1.387556 0.003523 -0.006035 0.000331 3.312716 0.266725 -0.595362 21.496756 11.871136 2.283986 8.194746 0.014727 0.000426 18.45841 -3.793042 -4.958557 0.003663 -0.002533 0.016375 4.355284 16.503927 -5.784322 -0.090213 -0.466269 11.984874 -4.852002 -3.409085 -3.970967 1.614224 -1.857626 -1.536523 -4.2e-05 -1.5e-05 0.002972 -6.368164 -9.389905 -4.015976 -0.021778 -0.003213 6.101262 6.113367 -3.706439 -0.481243 -1.396056 0.984118 -1.796224 -4.8e-05 0.000333 0.004526 
